STARTFONT 2.1
COMMENT
COMMENT Converted from OpenType font "Q:\font stuff\winfont\Schwaben Alt Bold.ttf" by "otf2bdf 3.0".
COMMENT
FONT -FreeType-Schwaben Alt-Bold-R-Normal--40-400-72-72-P-183-ISO10646-1
SIZE 40 72 72
FONTBOUNDINGBOX 38 45 -1 -8
STARTPROPERTIES 19
FOUNDRY "FreeType"
FAMILY_NAME "Schwaben Alt"
WEIGHT_NAME "Bold"
SLANT "R"
SETWIDTH_NAME "Normal"
ADD_STYLE_NAME ""
PIXEL_SIZE 40
POINT_SIZE 400
RESOLUTION_X 72
RESOLUTION_Y 72
SPACING "P"
AVERAGE_WIDTH 183
CHARSET_REGISTRY "ISO10646"
CHARSET_ENCODING "1"
FONT_ASCENT 37
FONT_DESCENT 8
COPYRIGHT "-FreeType-Schwaben Alt-Bold-R-Normal--40-400-72-72-P-183-ISO10646-1"
_OTF_FONTFILE "Q:\font stuff\winfont\Schwaben Alt Bold.ttf"
_OTF_PSNAME "SchwabenAlt-Bold"
ENDPROPERTIES
CHARS 86
STARTCHAR 0020
ENCODING 32
SWIDTH 300 0
DWIDTH 12 0
BBX 0 0 0 0
BITMAP
ENDCHAR
STARTCHAR 0021
ENCODING 33
SWIDTH 100 0
DWIDTH 4 0
BBX 4 28 0 1
BITMAP
60
F0
F0
F0
F0
F0
E0
60
60
60
60
60
60
60
60
60
40
40
40
40
00
00
00
00
00
60
F0
40
ENDCHAR
STARTCHAR 0022
ENCODING 34
SWIDTH 200 0
DWIDTH 8 0
BBX 8 8 0 21
BITMAP
44
EE
77
77
66
66
44
88
ENDCHAR
STARTCHAR 0023
ENCODING 35
SWIDTH 200 0
DWIDTH 8 0
BBX 8 7 0 -4
BITMAP
66
FF
77
66
66
44
88
ENDCHAR
STARTCHAR 0024
ENCODING 36
SWIDTH 575 0
DWIDTH 23 0
BBX 22 25 0 1
BITMAP
000060
000198
000F38
000F5C
000F9C
000F08
000F10
000FF8
070FF8
0FCFF0
17FF00
71EF00
704F00
F00F00
F00F00
F00F00
F00F00
F00F00
F00F00
780F00
784F80
3FBFC4
3F0FF8
1C01E0
0800C0
ENDCHAR
STARTCHAR 0026
ENCODING 38
SWIDTH 575 0
DWIDTH 23 0
BBX 22 25 0 1
BITMAP
000040
000198
000F38
001F7C
000F98
000F18
000F10
020FF8
070FF8
0FCFF0
37FF00
71EF00
70CF00
F00F00
E00F00
E00F00
F00F00
F00F00
F00F00
F00F00
784F00
7FBFC4
3E0FF8
1C03E0
0800C0
ENDCHAR
STARTCHAR 002C
ENCODING 44
SWIDTH 100 0
DWIDTH 4 0
BBX 4 7 0 -4
BITMAP
60
F0
70
60
60
40
80
ENDCHAR
STARTCHAR 002E
ENCODING 46
SWIDTH 100 0
DWIDTH 4 0
BBX 4 3 0 1
BITMAP
60
F0
40
ENDCHAR
STARTCHAR 0030
ENCODING 48
SWIDTH 525 0
DWIDTH 21 0
BBX 20 28 0 1
BITMAP
006000
00F000
01F800
03FC00
04FE00
087F00
181F80
300FC0
3007E0
7003E0
7001F0
F001F0
F000F0
F000F0
F000F0
F000F0
F800E0
FC00E0
7E00C0
7F0180
3F8180
1FC300
0FE600
07FC00
03F800
01F000
00E000
004000
ENDCHAR
STARTCHAR 0031
ENCODING 49
SWIDTH 350 0
DWIDTH 14 0
BBX 13 29 0 0
BITMAP
0008
0070
07E0
1FC0
07C0
07C0
07C0
07C0
07C0
07C0
07C0
07C0
07C0
07C0
07C0
07C0
07C0
07C0
07C0
07C0
07C0
07C0
07E0
0FF0
0FC0
1E00
3000
6000
8000
ENDCHAR
STARTCHAR 0032
ENCODING 50
SWIDTH 550 0
DWIDTH 22 0
BBX 20 29 0 0
BITMAP
010000
010000
03C000
07F800
0FFE00
1FFF00
39FF80
603FC0
C00FC0
0007E0
0003E0
0003C0
0003C0
000780
000F00
001E00
003800
006000
00C000
010000
020010
040010
0FF820
1FFE40
3FFFC0
3FFF80
7DFF80
600F00
800300
ENDCHAR
STARTCHAR 0033
ENCODING 51
SWIDTH 450 0
DWIDTH 18 0
BBX 15 29 0 -1
BITMAP
0200
07C0
0FE0
1FF0
3FF8
60F8
8078
0078
0070
0070
0060
00C0
01F0
07F8
1FFC
707C
003C
003E
001E
001E
001E
001E
001C
001C
6018
F030
F860
FFC0
7F00
ENDCHAR
STARTCHAR 0034
ENCODING 52
SWIDTH 525 0
DWIDTH 21 0
BBX 20 29 0 0
BITMAP
000FF0
001FC0
001F80
002F80
004F80
00CF80
008F80
010F80
020F80
060F80
040F80
080F80
100FB0
3FFFF0
3FFFF0
7FFFF0
FFFFF0
000F80
000F80
000F80
000F80
000F80
000F80
000FE0
000FC0
001C00
003800
00E000
008000
ENDCHAR
STARTCHAR 0035
ENCODING 53
SWIDTH 450 0
DWIDTH 18 0
BBX 13 29 0 0
BITMAP
0008
1FF8
3FF0
3FF0
3FF0
7FF0
4000
4000
6000
F800
FE00
FF00
FF80
3FC0
0FE0
03E0
01F0
00F0
00F0
00F0
00F0
00F0
00E0
01C0
01C0
0380
0600
1C00
6000
ENDCHAR
STARTCHAR 0036
ENCODING 54
SWIDTH 475 0
DWIDTH 19 0
BBX 17 29 0 -1
BITMAP
001000
003800
003C00
007000
006000
00C000
018000
010000
020000
060000
047000
08F800
09FC00
13FE00
343F00
200F00
600780
600780
600700
E00700
E00600
E00600
F00400
F80800
7FF000
7FE000
3FC000
1F8000
070000
ENDCHAR
STARTCHAR 0037
ENCODING 55
SWIDTH 525 0
DWIDTH 21 0
BBX 19 29 0 0
BITMAP
100000
180000
1FFFE0
3FFFE0
3FFFC0
3FFFC0
7FFF80
600180
C00100
800300
000600
000600
000C00
000C00
001C00
001800
003800
003800
007000
007000
00F000
00E000
01E000
01E000
01E000
03E000
03E000
03E000
03E000
ENDCHAR
STARTCHAR 0038
ENCODING 56
SWIDTH 550 0
DWIDTH 22 0
BBX 19 28 0 0
BITMAP
004000
00E000
01F800
07FE00
09FF00
103F80
3007C0
7001C0
7801C0
7C0180
7F0300
7FE600
3FFC00
1FFF00
07FF80
19FFC0
301FE0
6007E0
6001E0
E000E0
F000E0
F800C0
7E01C0
7FC100
3FF600
0FF800
03F000
01C000
ENDCHAR
STARTCHAR 0039
ENCODING 57
SWIDTH 475 0
DWIDTH 19 0
BBX 16 29 0 -1
BITMAP
0040
00F8
01FC
03FE
07FF
083F
100F
300F
6007
6007
E007
E002
F006
F006
FC34
7FE4
3FC8
1F90
0E10
0020
0060
00C0
0080
0180
0300
0E00
1E00
1C00
0C00
ENDCHAR
STARTCHAR 003A
ENCODING 58
SWIDTH 100 0
DWIDTH 4 0
BBX 4 9 0 1
BITMAP
60
E0
40
00
00
00
60
F0
40
ENDCHAR
STARTCHAR 003B
ENCODING 59
SWIDTH 100 0
DWIDTH 4 0
BBX 4 13 0 -4
BITMAP
60
E0
40
00
00
00
60
F0
70
60
60
40
80
ENDCHAR
STARTCHAR 0040
ENCODING 64
SWIDTH 575 0
DWIDTH 23 0
BBX 22 25 0 1
BITMAP
000040
000198
000F38
001F7C
000F98
000F18
000F10
020FF8
070FF8
0FCFF0
37FF00
71EF00
70CF00
F00F00
E00F00
E00F00
F00F00
F00F00
F00F00
F00F00
784F00
7FBFC4
3E0FF8
1C03E0
0800C0
ENDCHAR
STARTCHAR 0041
ENCODING 65
SWIDTH 725 0
DWIDTH 29 0
BBX 27 29 0 -1
BITMAP
01800100
0FE00600
3FF00C00
43F83C00
C1F83C00
E0FC7C00
F07C7C00
607C7C00
007C7C00
003C7C00
003C7C00
00387C00
00387C00
00387C00
00707C00
00707C00
00607C00
00C07C00
00807C00
01807C00
03007C00
07007C00
0FC07C00
1FF07C00
07F87C00
01FCBE20
007F3FC0
003C1F80
00180600
ENDCHAR
STARTCHAR 0042
ENCODING 66
SWIDTH 900 0
DWIDTH 36 0
BBX 31 29 0 -1
BITMAP
00800000
03F00E00
0FF81E00
1FFC7F00
7FFE9F80
01FF0FE0
007F07E0
003F83C0
001F8100
001F8200
000FCFE0
000FDFF0
000FBFF8
000FC7FC
000F80FC
000F807E
000F003E
000E003E
001C001E
0018001E
0030001E
00E0001E
0380003C
1C60003C
E3F80078
3FFC0070
07FF81C0
01FFFF00
003FF800
ENDCHAR
STARTCHAR 0043
ENCODING 67
SWIDTH 675 0
DWIDTH 27 0
BBX 25 30 0 -1
BITMAP
00070000
003FFF00
00FFFF00
013FFE00
063FFE00
0C3E0000
0C3E0000
183E0000
383E0000
383E0000
703E0000
703E0000
F03E0000
F03E0000
F03E0000
F03E0000
F03E0000
F03E0000
F83E0000
F83E0000
FC3C0000
7E300000
3F600080
3FC00180
1FF80F80
0FFFFF00
07FFFE00
01FFFC00
007FF000
00030000
ENDCHAR
STARTCHAR 0044
ENCODING 68
SWIDTH 850 0
DWIDTH 34 0
BBX 29 28 0 0
BITMAP
60000000
70000000
FFC00000
FFFFC000
FFFFF800
7FFFFE00
1FFFFF00
0027FF80
00443FC0
00880FE0
011807E0
023803F0
02F801F0
067C00F0
0E3C0078
0E1E0078
1F1F0038
1F8F0030
1F8C0030
01980030
00A00020
00C00020
00F00040
01FC0040
03FF8080
0FFFFF00
0C3FFC00
0001F000
ENDCHAR
STARTCHAR 0045
ENCODING 69
SWIDTH 725 0
DWIDTH 29 0
BBX 24 28 1 0
BITMAP
002080
00C304
03871E
071E7F
0F3EFF
1F1F1F
1F1E0F
1F1E07
1F1E06
1F1E06
1F1E04
1F1FFF
1F1FFF
1F1FFE
1F1FFE
1E1E00
1E1E00
1C3C00
307000
C3C000
1FF800
63FC00
007E00
003F00
001F80
000FE1
0007FE
0003F8
ENDCHAR
STARTCHAR 0046
ENCODING 70
SWIDTH 550 0
DWIDTH 22 0
BBX 19 33 0 -5
BITMAP
007FC0
00C780
0187C0
0187C0
0387C0
038000
038000
03C000
03C000
01C000
01E000
03FFC0
03FFC0
03FF80
01FC00
00FC00
007E00
003F00
003F80
001F80
000FC0
0007C0
0007E0
0003E0
0003E0
F801E0
7801E0
7801E0
3C01E0
1E01E0
0E03C0
078380
01FE00
ENDCHAR
STARTCHAR 0047
ENCODING 71
SWIDTH 700 0
DWIDTH 28 0
BBX 26 28 0 0
BITMAP
001C0000
003F0400
00FFC400
011FFC00
0607F800
0E01F000
1C017000
38032000
38070000
700F0000
701F0000
F01F0700
F01F1F80
F01F3F80
F01F7FC0
F00F83C0
F00F03C0
F80F03C0
F80F01C0
7C0F01C0
7C0F01C0
3E0F0180
1F0F0180
0F8E0100
07D80200
03F00400
01FE7800
003FC000
ENDCHAR
STARTCHAR 0048
ENCODING 72
SWIDTH 725 0
DWIDTH 29 0
BBX 24 31 1 -3
BITMAP
000700
0003F8
0003F0
0007E0
000FC0
001F80
003F00
007C00
00F800
01E000
038000
0E0060
1803F0
600FF8
F03FFC
F871FC
F9807E
7A003E
7C003F
38001F
20001F
00001F
00000F
03800F
07C01F
07801E
07001E
06003C
060078
0301E0
00FF00
ENDCHAR
STARTCHAR 0049
ENCODING 73
SWIDTH 650 0
DWIDTH 26 0
BBX 24 29 0 -1
BITMAP
008000
03E004
0FF808
37FC1A
21FFF4
607FE4
701FC8
700308
400018
00001C
00003C
00003C
00003E
00003E
00003E
00001E
00001F
00001F
00000F
06000F
0F000F
3FC007
7FE006
C7F80C
01FF10
00FFE0
003FC0
001F00
000600
ENDCHAR
STARTCHAR 004A
ENCODING 74
SWIDTH 650 0
DWIDTH 26 0
BBX 25 37 0 -8
BITMAP
00800000
03E00400
0FF80800
37FC1200
21FFF400
607FE400
701FC800
70030800
40001800
00001C00
00003C00
00003C00
00003E00
00003E00
00003E00
00001E00
00001F00
00001F00
00001F00
00000F00
00000F00
00000F00
00000F80
00000F80
00000780
00000780
00000780
06000780
1F000380
3FC00300
7FF00300
C7FC0400
01FFF800
007FE000
001FC000
00070000
00020000
ENDCHAR
STARTCHAR 004B
ENCODING 75
SWIDTH 750 0
DWIDTH 30 0
BBX 28 29 0 0
BITMAP
00040000
000C3000
001C7800
103CF800
3C7FFC00
7FFC7F00
FF7C3F80
7E7C1F00
1C7C1C00
007C0800
007C3000
007C6000
007DF000
007FF000
007CF800
007CF800
00787C00
00787E00
00783E00
00703F00
00701F00
00600F00
00400F80
004E07C0
00BF87C0
01FFF3F0
07FFE3E0
3807C1C0
00018080
ENDCHAR
STARTCHAR 004C
ENCODING 76
SWIDTH 650 0
DWIDTH 26 0
BBX 24 29 1 0
BITMAP
000010
000060
0007C0
007BC0
01E3C0
07C7C0
07C7C0
07C7C0
07C7C0
0F87C0
0F87C0
0F87C0
0F87C0
0F87C0
0F8780
0F8780
0F8F00
0F8C00
0F3800
1F4000
1F8000
380000
C3E000
1FF800
E1FE00
007F03
003FFC
000FF8
0003E0
ENDCHAR
STARTCHAR 004D
ENCODING 77
SWIDTH 975 0
DWIDTH 39 0
BBX 37 29 0 0
BITMAP
0400000000
0801800C00
3803E01E00
7807F03F00
7C0FF07FC0
7C1FF19FF8
3E31FA0FF0
3F40FC03E0
1F80F800C0
1F00F80380
0F00F80780
0F00F80780
0F00F80F80
0700F80F80
0600F80F80
0600F80F80
0C00F80F80
0C00F80F80
0800F80F80
1800F80F80
1000F80F80
3C00F80F80
3E10F80F80
7F20F80FB8
FFC0F80FC0
3F80F00F80
0F00C00E00
0600800C00
0000001000
ENDCHAR
STARTCHAR 004E
ENCODING 78
SWIDTH 650 0
DWIDTH 26 0
BBX 25 29 0 0
BITMAP
10000000
301F0000
303F8000
707FC000
70FFF000
F8C3FF00
F900FE00
7E007E00
7E001C00
3C000800
3C000800
18001800
18001800
18003000
10003000
10003000
10007000
10007800
18007800
38007800
3C047800
7E087C00
7F107C80
3FA03F00
1FE03E00
0FC03C00
07803800
03003000
01002000
ENDCHAR
STARTCHAR 004F
ENCODING 79
SWIDTH 775 0
DWIDTH 31 0
BBX 28 28 0 1
BITMAP
000E0800
003E1800
00FE3C00
03BE7C00
063FBE00
0E3E1F00
1C3E1F00
383E1F80
783E1FC0
783E0FC0
F03E07E0
F03E07E0
F03E03E0
F03E01F0
F03E00F0
F83E00F0
F83C0070
F8380060
7C300060
7E600060
3F4000C0
3F800180
1FE00300
0FF80600
07FFFC00
01FFF000
007FC000
001E0000
ENDCHAR
STARTCHAR 0050
ENCODING 80
SWIDTH 650 0
DWIDTH 26 0
BBX 25 36 0 -8
BITMAP
08018000
1C03E000
1E07F800
3E1FFC00
7F3FFE00
FF63FE00
1FC07F00
1F803F00
0F801F80
0F800F80
0F800F80
0F800780
0F800780
0F800780
0F800780
0F800700
0F800700
0F800700
0F800600
0F800600
0F800C00
1FE00800
3FF81000
7FFE3000
FFFFE000
0FFFC000
0FBF8000
0F8F0000
0F820000
0F000000
0F000000
07000000
07000000
06000000
06000000
02000000
ENDCHAR
STARTCHAR 0051
ENCODING 81
SWIDTH 775 0
DWIDTH 31 0
BBX 29 28 0 1
BITMAP
000E0800
003E1800
00FE3C00
033E7C00
063FBE00
1E3E1F00
1C3E1F00
383E1F80
783E0FC0
783E07E0
F83E03E0
F03E01E0
F03E01F0
F03E00F0
F03E00F0
F83E0070
F83C0070
F8380060
7C300060
7E6000E8
3F4000D8
3F8001B8
1FE00338
0FF80678
07FFFCF8
01FFF0C0
007FC080
001E0000
ENDCHAR
STARTCHAR 0052
ENCODING 82
SWIDTH 775 0
DWIDTH 31 0
BBX 29 29 0 1
BITMAP
07800000
0FE00F00
1FF03F80
3FF87FC0
7FFCFFC0
83FF87C0
00FF03C0
007F01C0
003F0180
001F0300
001F0600
000F1E00
000FFE00
000F7E00
000E3E00
001C1F00
001C1F00
00381F00
00600F80
00C00F80
03C00F80
0FE007C0
0FF027C0
03F847C0
01FD83E0
00FE03F8
00FC03E0
007003C0
00200100
ENDCHAR
STARTCHAR 0053
ENCODING 83
SWIDTH 800 0
DWIDTH 32 0
BBX 30 28 0 0
BITMAP
00FF8000
03FFF008
0FFFFE18
1C3FFFF0
3007FFE0
2001FFE0
40003FC0
40000780
40000180
C0000100
C0000200
E0001F80
FF07FFE0
FFFFFFF8
FFFFFFFC
FFFFFFFC
9FFFF9FC
87FF807C
4000003C
4000003C
4000003C
20000038
10000078
080000F0
040001E0
03000780
01C01E00
003FF000
ENDCHAR
STARTCHAR 0054
ENCODING 84
SWIDTH 725 0
DWIDTH 29 0
BBX 28 29 0 -1
BITMAP
00000010
0FFFFFE0
1FFFFFE0
1FFFFFC0
3FFFFFC0
3FFFFFC0
404F0000
808F0000
018F0000
030F0000
060F0000
0E0F0000
0E0F0000
1E0F0000
1E0F0000
1E0F0000
1E0F0000
1E0F0000
1F0E0000
1F8C0000
1FD00000
0FE00020
07F00060
07FC01C0
03FFFF80
01FFFF00
007FFE00
001FFE00
0003FC00
ENDCHAR
STARTCHAR 0055
ENCODING 85
SWIDTH 675 0
DWIDTH 27 0
BBX 24 29 1 0
BITMAP
100000
380030
7C0078
7E01FE
FE03FF
FE01FC
3E00FC
3E0078
3E0078
3E0078
3E0078
3E0078
3E0078
3E0078
3E0078
3E0078
3E0078
3E0078
3E0078
3E0078
3E00F8
3E01F8
3F027C
FF847E
3FE87C
0FF0F8
03E0F0
01E0E0
004080
ENDCHAR
STARTCHAR 0056
ENCODING 86
SWIDTH 650 0
DWIDTH 26 0
BBX 23 28 1 0
BITMAP
300180
7807C0
FC0FE0
FC1FF0
7E7FF8
3E83FC
3F00FC
1F007E
0F003E
0F003E
0F801E
07801E
07800E
07800E
07800E
07800E
07800C
07800C
07000C
0F0008
0F0010
1FC010
1FF020
3FFC40
07FF80
01FF00
007E00
001800
ENDCHAR
STARTCHAR 0057
ENCODING 87
SWIDTH 950 0
DWIDTH 38 0
BBX 36 28 0 0
BITMAP
1801800000
3C03E00E00
7E07F01F00
FF07F83F80
7F8FF87FC0
3F90FC9FC0
1FA07D07E0
0FC07E01E0
0F803C01E0
0F803C00F0
0F803C0070
0F803C0070
0F803C0070
0F803C0070
0F803C0060
0F803C0060
0F803C0060
0F803C00C0
0F803C00C0
0F803C0180
0F803C0100
1F803C0200
1FC23F0400
0FE43F8400
07F83FC800
03F007F000
01E003C000
00C0008000
ENDCHAR
STARTCHAR 0058
ENCODING 88
SWIDTH 725 0
DWIDTH 29 0
BBX 27 29 0 -1
BITMAP
07000000
0FC007C0
1FF00FE0
3FF81FC0
7FFC1FC0
03FC3F80
00FE6100
007F4000
003F8000
001F8000
001F8000
001F0080
03FFFF80
07FFFF00
07FFFF00
0FFFFE00
0FFF9E00
100F8000
101F8000
001F8000
001FC000
0027E000
0027E000
1CE3F820
3FC3FFE0
7F81FFC0
FF80FF80
7F007E00
3C001C00
ENDCHAR
STARTCHAR 0059
ENCODING 89
SWIDTH 725 0
DWIDTH 29 0
BBX 26 32 0 -4
BITMAP
07001800
0FC03E00
3FF07F00
7FF0FF80
83FB3F80
01FE1FC0
00FC0FC0
007E07C0
003E07C0
003E07C0
001F07C0
001F07C0
001F0780
001F0780
001F0700
000F0700
000F0E00
000F0E00
000F0C00
000F1800
000F1800
03FF3000
1C0FE000
300FF000
201FFC00
201F1E00
201E0F00
20180780
106003C0
0F8007C0
00000FC0
00000780
ENDCHAR
STARTCHAR 005A
ENCODING 90
SWIDTH 525 0
DWIDTH 21 0
BBX 19 33 0 -5
BITMAP
020000
1FC000
3FF800
7FFFE0
FFFFC0
0FFF80
01FF00
001E00
000C00
001800
003000
007000
00FC00
01FE00
03FF80
07FFC0
0E7FC0
081FE0
000FE0
0007E0
0003E0
0001E0
0001E0
0001E0
7C01E0
7C01C0
FC01C0
FC0380
FC0300
780700
780E00
1E3800
07E000
ENDCHAR
STARTCHAR 005C
ENCODING 92
SWIDTH 550 0
DWIDTH 22 0
BBX 20 34 1 -7
BITMAP
03E000
07F800
0FFC00
0C3C00
103C00
103C00
303C00
303C00
383C00
3C7FC0
7EFFC0
FEFFC0
3E3C00
3C3C00
3C3C00
3C3C00
3C3C00
3C3C00
3C3C00
3C3C00
3C3C00
3C3C00
3C3E00
3CFF10
3C3FE0
3C0780
1C0300
1C0000
1C0000
180000
180000
080000
080000
080000
ENDCHAR
STARTCHAR 0061
ENCODING 97
SWIDTH 375 0
DWIDTH 15 0
BBX 14 17 0 0
BITMAP
00E0
01F0
06FC
087C
1038
2010
6010
6020
6020
E020
F060
F070
78F8
7FFC
3E7C
1C38
0810
ENDCHAR
STARTCHAR 0062
ENCODING 98
SWIDTH 400 0
DWIDTH 16 0
BBX 15 25 1 -1
BITMAP
0200
0C00
3800
F800
7800
7800
7800
7800
7860
79F0
7BF8
7CFC
787C
783C
783E
781E
781C
781C
7818
7810
7830
FE20
7FC0
1F00
0600
ENDCHAR
STARTCHAR 0063
ENCODING 99
SWIDTH 275 0
DWIDTH 11 0
BBX 11 17 0 0
BITMAP
0600
0F80
1FE0
73C0
7180
E000
E000
E000
E000
F000
F000
F000
7840
7D80
3F00
3C00
1800
ENDCHAR
STARTCHAR 0064
ENCODING 100
SWIDTH 475 0
DWIDTH 19 0
BBX 17 26 1 1
BITMAP
070000
1E0000
3E0000
3C0000
3E0000
3F0000
1F8000
0FE000
07F000
03F800
07FC00
187E00
383F00
701F00
F00F00
F00780
F00780
F80780
F80300
FC0300
7C0200
3E0600
3F8C00
1FF000
07C000
030000
ENDCHAR
STARTCHAR 0065
ENCODING 101
SWIDTH 300 0
DWIDTH 12 0
BBX 11 18 0 0
BITMAP
0200
0700
0F00
3780
73C0
E3E0
E180
E100
E200
E400
F800
F000
F000
7840
7F80
3E00
1C00
0800
ENDCHAR
STARTCHAR 0066
ENCODING 102
SWIDTH 400 0
DWIDTH 16 0
BBX 13 34 1 -8
BITMAP
03C0
07F8
0FF8
0DF0
1060
1000
3000
3000
3800
3FC0
7FC0
FFC0
3E00
3C00
3C00
3C00
3C00
3C00
3C00
3C00
3C00
3C00
3C00
3C00
3C00
3C00
1C00
1C00
1C00
1800
1800
0800
0800
0800
ENDCHAR
STARTCHAR 0067
ENCODING 103
SWIDTH 425 0
DWIDTH 17 0
BBX 17 24 -1 -7
BITMAP
301800
7FFF80
7FFF00
7FFF00
783C00
783C00
783C00
783C00
783C00
783C00
783C00
783C00
7C7E00
7EBE00
3F1E00
1C1E00
080E00
000E00
000C00
600C00
780800
FC1000
FFE000
3F8000
ENDCHAR
STARTCHAR 0068
ENCODING 104
SWIDTH 425 0
DWIDTH 17 0
BBX 16 30 0 -5
BITMAP
0100
0600
3C00
7C00
3C00
3C00
3C00
3C20
3C70
3CF8
3DF8
3E7C
3C7C
3C3E
3C1E
3C0E
3C0F
3C07
3C07
3C06
7C06
FF06
3FE6
078C
0308
0018
0030
0060
00C0
0180
ENDCHAR
STARTCHAR 0069
ENCODING 105
SWIDTH 275 0
DWIDTH 11 0
BBX 10 25 0 0
BITMAP
0700
0F00
1F00
1E00
1800
0000
0000
0000
1800
3C00
FE00
7C00
3C00
3C00
3C00
3C00
3C00
3C00
3C00
3C00
7C00
FE00
3FC0
1F00
0400
ENDCHAR
STARTCHAR 006A
ENCODING 106
SWIDTH 200 0
DWIDTH 8 0
BBX 8 31 0 -7
BITMAP
07
0F
1F
1E
18
00
00
00
18
3C
FE
7C
3C
3C
3C
3C
3C
3C
3C
3C
3C
3C
3C
3C
3C
3C
38
30
20
60
40
ENDCHAR
STARTCHAR 006B
ENCODING 107
SWIDTH 300 0
DWIDTH 12 0
BBX 12 25 0 1
BITMAP
0100
0660
3CE0
7DF0
3E70
3C60
3C40
3FE0
3FE0
7FC0
3C00
3C00
3C00
3C00
3C00
3C00
3C00
3C00
3C00
3C00
7C00
FF00
3FE0
0780
0300
ENDCHAR
STARTCHAR 006C
ENCODING 108
SWIDTH 300 0
DWIDTH 12 0
BBX 11 25 0 1
BITMAP
0100
0600
3C00
7C00
3C00
3C00
3C00
3C00
3C00
3C00
3C00
3C00
3C00
3C00
3C00
3C00
3C00
3C00
3C00
3C00
7C00
FF00
3FE0
0780
0300
ENDCHAR
STARTCHAR 006D
ENCODING 109
SWIDTH 600 0
DWIDTH 24 0
BBX 23 18 0 0
BITMAP
200000
70E1C0
FBF3F0
FCFDFE
38787C
383838
383838
383838
383838
383838
383838
383838
383838
383838
383838
38383E
30303C
000018
ENDCHAR
STARTCHAR 006E
ENCODING 110
SWIDTH 400 0
DWIDTH 16 0
BBX 15 18 0 0
BITMAP
2000
70E0
FBF0
FDFE
387C
383C
383C
383C
383C
383C
383C
383C
383C
383C
383C
383E
303C
0018
ENDCHAR
STARTCHAR 006F
ENCODING 111
SWIDTH 425 0
DWIDTH 17 0
BBX 15 17 1 1
BITMAP
01C0
03F0
0FF8
19FC
307E
703E
F01E
F01E
F00E
F00E
F80E
FC0E
7C0C
3F08
1FF0
0FC0
0600
ENDCHAR
STARTCHAR 0070
ENCODING 112
SWIDTH 400 0
DWIDTH 16 0
BBX 16 23 0 -7
BITMAP
3838
787C
FCFC
3D3E
3E1E
3C0E
3C0F
3C06
3C06
3C06
3C06
3C04
3E0C
7F88
3FF0
3FE0
3CC0
3800
1800
1800
1800
1800
1800
ENDCHAR
STARTCHAR 0071
ENCODING 113
SWIDTH 400 0
DWIDTH 16 0
BBX 15 23 0 -7
BITMAP
01E0
0FF0
38FC
787E
703C
F03C
F03C
F03C
E03C
E03C
E03C
F07C
F0BC
F93C
FE3C
7C3C
183C
0038
0038
0038
0018
0018
0018
ENDCHAR
STARTCHAR 0072
ENCODING 114
SWIDTH 350 0
DWIDTH 14 0
BBX 13 18 0 0
BITMAP
1000
7860
7DF0
3EF8
3C70
3C20
3C00
3C00
3C00
3C00
3C00
3C00
3C00
7C00
FF00
3FE0
0780
0300
ENDCHAR
STARTCHAR 0073
ENCODING 115
SWIDTH 400 0
DWIDTH 16 0
BBX 13 34 1 -8
BITMAP
03C0
07F8
0FF8
0DF0
1060
1000
3000
3000
3800
3C00
7E00
FE00
3E00
3C00
3C00
3C00
3C00
3C00
3C00
3C00
3C00
3C00
3C00
3C00
3C00
3C00
1C00
1C00
1C00
1800
1800
0800
0800
0800
ENDCHAR
STARTCHAR 0074
ENCODING 116
SWIDTH 300 0
DWIDTH 12 0
BBX 11 22 0 1
BITMAP
0400
0C00
1C00
3C00
3FC0
7FC0
FFC0
3C00
3C00
3C00
3C00
3C00
3C00
3C00
3C00
3C00
3C00
7C00
FF00
3FE0
0780
0300
ENDCHAR
STARTCHAR 0075
ENCODING 117
SWIDTH 400 0
DWIDTH 16 0
BBX 15 18 0 0
BITMAP
0004
380C
F83C
383C
383C
383C
383C
383C
383C
383C
383C
383C
383C
7C3C
FE3C
3FFE
0F1C
0208
ENDCHAR
STARTCHAR 0076
ENCODING 118
SWIDTH 425 0
DWIDTH 17 0
BBX 16 17 0 1
BITMAP
383C
7C7E
FDFE
7E1F
3C0F
1C0F
1C07
1C07
1806
1806
3004
2004
7C08
FF90
7FF0
0FC0
0180
ENDCHAR
STARTCHAR 0077
ENCODING 119
SWIDTH 650 0
DWIDTH 26 0
BBX 23 17 0 1
BITMAP
387038
78F87C
F9FCFC
7E3F3E
3C3E1E
3C1E1E
3C1E0E
3C1E0E
3C1E0E
3C1E0E
3C1E0C
3C1E0C
7E3F08
7F7FD0
1F87E0
0703C0
020100
ENDCHAR
STARTCHAR 0078
ENCODING 120
SWIDTH 350 0
DWIDTH 14 0
BBX 13 24 0 -6
BITMAP
3060
78F0
7DF8
FEF0
7C60
3C00
3C00
3C00
3C00
1C00
1C00
3C08
3E10
3FA0
3FC0
3F80
3380
2000
6000
6000
4000
4000
8000
8000
ENDCHAR
STARTCHAR 0079
ENCODING 121
SWIDTH 400 0
DWIDTH 16 0
BBX 16 25 0 -8
BITMAP
0010
387C
7C7E
FCFE
7D1F
3E0F
1E06
1E06
1E04
0F04
0F08
0F10
0F10
07A0
07A0
07C0
0780
0380
0300
0300
0200
0400
0400
0800
0800
ENDCHAR
STARTCHAR 007A
ENCODING 122
SWIDTH 325 0
DWIDTH 13 0
BBX 12 26 0 -8
BITMAP
0200
0400
0E00
1F00
3FB0
6FE0
47C0
0380
0100
0200
0780
0FC0
1FE0
3FE0
60F0
0070
0070
0030
0020
0020
0060
0040
7080
FB00
7E00
1000
ENDCHAR
STARTCHAR 007B
ENCODING 123
SWIDTH 200 0
DWIDTH 8 0
BBX 8 7 0 -3
BITMAP
66
FF
77
66
66
44
88
ENDCHAR
STARTCHAR 007C
ENCODING 124
SWIDTH 350 0
DWIDTH 14 0
BBX 13 18 0 0
BITMAP
0200
0700
0FF0
3FE0
41C0
4080
E180
F3C0
FBE0
7FF8
78F8
3038
2030
7830
FE20
7FC0
1E00
0C00
ENDCHAR
STARTCHAR 007D
ENCODING 125
SWIDTH 200 0
DWIDTH 8 0
BBX 7 7 0 22
BITMAP
26
66
EC
EE
EE
6E
04
ENDCHAR
STARTCHAR 00A0
ENCODING 160
SWIDTH 300 0
DWIDTH 12 0
BBX 0 0 0 0
BITMAP
ENDCHAR
STARTCHAR 00C4
ENCODING 196
SWIDTH 725 0
DWIDTH 29 0
BBX 27 36 0 0
BITMAP
00030800
000E7800
000E7000
000C7000
00086000
0010C000
00000000
03800000
0FE00600
3FF01C00
43F83C00
C1F87C00
E0FC7C00
F0FC7C00
607C7C00
007C7C00
003C7C00
003C7C00
00387C00
00387C00
00387C00
00307C00
00207C00
00607C00
00407C00
00807C00
01007C00
01007C00
07007C00
0FC07C00
1FE07C00
07F07C00
01F8FC20
007F3FC0
003C1F00
00180600
ENDCHAR
STARTCHAR 00D6
ENCODING 214
SWIDTH 725 0
DWIDTH 29 0
BBX 28 36 0 1
BITMAP
00030800
000E7800
000E7000
000C7000
00086000
0010C000
00000000
00000000
000C0800
003C1800
00FC3800
033CFC00
0E3D3E00
1C3E3E00
3C3E1F00
383E1F80
783C0FC0
783C07C0
F03C03E0
F03C01E0
F03C01F0
F03C00F0
F03C00F0
F83C00F0
F83C0060
F8380060
7C7000E0
7E6000C0
3F4000C0
3F800180
1FC00300
0FF80600
07FFFC00
01FFF000
007FC000
001E0000
ENDCHAR
STARTCHAR 00DC
ENCODING 220
SWIDTH 675 0
DWIDTH 27 0
BBX 25 36 0 1
BITMAP
000C6000
0079E000
0039C000
00318000
00618000
00430000
00000000
08000000
1C001800
3E003C00
7E00FE00
7F03FF80
FF00FE00
1F007C00
1F007C00
1F003C00
1F003C00
1F003C00
1F003C00
1F003C00
1F003C00
1F003C00
1F003C00
1F003C00
1F007C00
1F007C00
1F007C00
1F007C00
1F00FC00
3F817E00
7FE27F00
1FF47E00
07F87800
01F07800
00E06000
00404000
ENDCHAR
STARTCHAR 00DF
ENCODING 223
SWIDTH 500 0
DWIDTH 20 0
BBX 18 35 1 -8
BITMAP
03C000
07F800
0FF800
0DF000
106000
100000
300000
300000
380000
3C0800
7E1800
FE3800
3E7C00
3FFEC0
3C3F80
3C1F00
3C0E00
3C0400
3C0800
3C1E00
3C3F00
3C7F80
3CFF80
3D83C0
3C01C0
3C01C0
1C00C0
1C0080
1C0080
180180
180100
09C200
0BEC00
09F800
004000
ENDCHAR
STARTCHAR 00E4
ENCODING 228
SWIDTH 400 0
DWIDTH 16 0
BBX 15 24 0 1
BITMAP
0086
079C
071C
0718
0610
0C20
0000
00E0
03F0
05FC
087C
3038
2010
6020
E020
E020
E060
E060
F0F0
78F0
7DFC
3E7C
1C30
0820
ENDCHAR
STARTCHAR 00F6
ENCODING 246
SWIDTH 425 0
DWIDTH 17 0
BBX 15 24 1 1
BITMAP
00C6
039E
039C
0318
0218
0430
0000
01C0
03F0
0FF8
19FC
307E
703E
F01E
F01E
F00E
F00E
F80E
FC0E
7C0C
3F08
1FF0
0FC0
0600
ENDCHAR
STARTCHAR 00FC
ENCODING 252
SWIDTH 400 0
DWIDTH 16 0
BBX 15 24 0 1
BITMAP
0186
079C
071C
0618
0630
0C20
0004
380C
F83C
383C
383C
383C
383C
383C
383C
383C
383C
383C
383C
7C3C
FE3C
3FFE
0F1C
0208
ENDCHAR
STARTCHAR 00FF
ENCODING 255
SWIDTH 175 0
DWIDTH 7 0
BBX 7 8 0 12
BITMAP
60
70
78
FC
FE
7C
3C
1C
ENDCHAR
ENDFONT
